<svg width="432" height="163" viewBox="0 0 432 163" fill="none" xmlns="http://www.w3.org/2000/svg">
<g filter="url(#filter0_d)">
<circle cx="87.5" cy="75.5" r="42.5" fill="#0DA6FC"/>
</g>
<path d="M68.024 58.12H75.896V97H68.024V58.12ZM95.531 63.976H89.531V58.12H109.403V63.976H103.499V97H95.531V63.976Z" fill="white"/>
<path d="M145.618 58.12H154.018L158.818 82.648L163.906 58.12H172.018L172.738 97H166.978L166.354 70.6L161.362 97H156.466L151.33 70.456L150.754 97H144.946L145.618 58.12ZM188.545 58.12H205.489V63.592H196.417V73.912H203.425V79.432H196.417V91.624H205.585V97H188.545V58.12ZM219.719 58.12H229.223C232.487 58.12 235.031 58.552 236.855 59.416C238.711 60.248 240.023 61.544 240.791 63.304C241.591 65.064 241.991 67.4 241.991 70.312V84.472C241.991 87.448 241.607 89.848 240.839 91.672C240.071 93.464 238.775 94.808 236.951 95.704C235.127 96.568 232.615 97 229.415 97H219.719V58.12ZM229.319 91.48C230.695 91.48 231.703 91.272 232.343 90.856C233.015 90.408 233.431 89.768 233.591 88.936C233.783 88.104 233.879 86.904 233.879 85.336V69.256C233.879 67.784 233.767 66.68 233.543 65.944C233.351 65.176 232.935 64.616 232.295 64.264C231.655 63.88 230.647 63.688 229.271 63.688H227.591V91.48H229.319ZM257.41 58.12H265.282V97H257.41V58.12ZM286.885 58.12H295.669L303.157 97H295.861L294.421 88.456H288.277L286.789 97H279.349L286.885 58.12ZM293.653 83.56L291.301 67.912L288.997 83.56H293.653ZM318.857 63.976H312.857V58.12H332.729V63.976H326.825V97H318.857V63.976ZM346.432 58.12H354.304V97H346.432V58.12ZM381.186 97.528C377.058 97.528 374.114 96.456 372.354 94.312C370.594 92.136 369.714 88.952 369.714 84.76V70.264C369.714 66.072 370.594 62.92 372.354 60.808C374.114 58.696 377.058 57.64 381.186 57.64C385.282 57.64 388.21 58.712 389.97 60.856C391.762 62.968 392.658 66.104 392.658 70.264V84.808C392.658 88.968 391.762 92.136 389.97 94.312C388.21 96.456 385.282 97.528 381.186 97.528ZM381.186 91.864C382.53 91.864 383.426 91.416 383.874 90.52C384.354 89.592 384.594 88.328 384.594 86.728V68.344C384.594 66.744 384.354 65.512 383.874 64.648C383.426 63.752 382.53 63.304 381.186 63.304C379.842 63.304 378.93 63.752 378.45 64.648C378.002 65.512 377.778 66.744 377.778 68.344V86.728C377.778 88.36 378.002 89.624 378.45 90.52C378.898 91.416 379.81 91.864 381.186 91.864ZM408.027 58.12H413.547L422.187 78.328V58.12H428.763V97H423.435L414.795 75.496V97H408.027V58.12Z" fill="black"/>
<defs>
<filter id="filter0_d" x="0" y="-12" width="175" height="175" filterUnits="userSpaceOnUse" color-interpolation-filters="sRGB">
<feFlood flood-opacity="0" result="BackgroundImageFix"/>
<feColorMatrix in="SourceAlpha" type="matrix" values="0 0 0 0 0 0 0 0 0 0 0 0 0 0 0 0 0 0 127 0"/>
<feMorphology radius="20" operator="dilate" in="SourceAlpha" result="effect1_dropShadow"/>
<feOffset/>
<feGaussianBlur stdDeviation="12.5"/>
<feColorMatrix type="matrix" values="0 0 0 0 0.0509804 0 0 0 0 0.65098 0 0 0 0 0.988235 0 0 0 0.2 0"/>
<feBlend mode="normal" in2="BackgroundImageFix" result="effect1_dropShadow"/>
<feBlend mode="normal" in="SourceGraphic" in2="effect1_dropShadow" result="shape"/>
</filter>
</defs>
</svg>
